<?xml version="1.0" encoding="UTF-8" standalone="no"?>
<svg
   version="1.1"
   id="Layer_1"
   x="0px"
   y="0px"
   width="100%"
   viewBox="0 0 305 305"
   enable-background="new 0 0 305 305"
   xml:space="preserve"
   sodipodi:docname="icon-closed.svg"
   inkscape:version="1.4.2 (f4327f4, 2025-05-13)"
   xmlns:inkscape="http://www.inkscape.org/namespaces/inkscape"
   xmlns:sodipodi="http://sodipodi.sourceforge.net/DTD/sodipodi-0.dtd"
   xmlns="http://www.w3.org/2000/svg"
   xmlns:svg="http://www.w3.org/2000/svg"><defs
   id="defs3" /><sodipodi:namedview
   id="namedview3"
   pagecolor="#ffffff"
   bordercolor="#000000"
   borderopacity="0.25"
   inkscape:showpageshadow="2"
   inkscape:pageopacity="0.0"
   inkscape:pagecheckerboard="0"
   inkscape:deskcolor="#d1d1d1"
   inkscape:zoom="3.1360656"
   inkscape:cx="156.0873"
   inkscape:cy="172.66858"
   inkscape:window-width="3840"
   inkscape:window-height="2131"
   inkscape:window-x="1911"
   inkscape:window-y="-9"
   inkscape:window-maximized="1"
   inkscape:current-layer="Layer_1" />

<path
   fill="#030202"
   opacity="1"
   stroke="none"
   d="m 84.08216,85.796696 c 0.638867,-5.964642 0.257516,-12.023773 2.120872,-17.288437 4.56182,-12.888815 19.218168,-19.096884 32.239498,-14.543668 1.29012,0.451122 2.56056,0.958525 3.81084,1.428785 7.62893,-13.149603 17.35223,-18.380572 29.50074,-15.967698 11.70292,2.324372 19.27352,11.03281 21.21233,24.735085 7.60627,-2.78266 15.16472,-2.981967 22.50236,0.764871 7.37821,3.767556 11.81624,9.869643 13.91099,17.995469 1.16997,-0.356833 2.22733,-0.66879 3.27815,-1.001387 16.41508,-5.195458 33.69275,6.361656 33.99604,23.570444 0.56517,32.06855 1.09088,64.16288 0.42036,96.22112 -0.67838,32.43466 -27.41236,58.47205 -59.90991,59.04236 -25.14719,0.4413 -50.33491,0.44279 -75.46393,-0.47453 C 86.644454,259.36445 69.780814,245.45744 61.077658,222.62535 52.337209,199.69539 46.992696,175.6839 43.431734,151.41196 41.474616,138.07194 47.302138,127.349 58.164655,119.57247 c 7.760935,-5.55611 15.838082,-10.66952 23.636186,-16.17581 1.173232,-0.82842 2.164941,-2.68932 2.253677,-4.13326 0.269393,-4.383946 0.05477,-8.797649 0.02764,-13.466704 m 19.147052,-16.05379 c -3.21828,2.577533 -4.230186,6.002213 -4.197988,10.016344 0.183611,22.89524 0.304091,45.7911 0.388408,68.68696 0.01903,5.16499 -3.102415,8.56008 -7.529098,8.49458 -4.382291,-0.0648 -7.197887,-3.19304 -7.332938,-8.29439 -0.10651,-4.02358 -0.09675,-8.0504 -0.123873,-12.07588 -0.0361,-5.3529 -0.05785,-10.70588 -0.08881,-16.64208 -6.409179,4.34947 -12.330607,8.10217 -17.957396,12.25417 -6.926228,5.11085 -9.704847,12.07618 -7.675035,20.56825 4.760284,19.91559 9.165861,39.93353 14.607757,59.66383 5.680672,20.59599 21.466007,33.57013 43.763673,33.23031 22.13424,-0.3373 44.28052,0.18053 66.42171,0.21868 28.63407,0.0493 48.89069,-20.32145 48.78766,-49.02579 -0.0948,-26.41841 -0.26481,-52.83656 -0.40784,-79.25479 -0.0205,-3.7738 0.055,-7.55433 -0.14441,-11.31954 -0.32101,-6.06074 -5.18488,-10.5963 -11.12218,-10.587199 -5.92128,0.0091 -10.3396,4.233784 -10.71391,10.430929 -0.16652,2.75696 -0.0326,5.53275 -0.0172,8.29989 0.0568,10.18969 0.17428,20.37943 0.15664,30.56895 -0.007,4.08196 -2.02565,6.82212 -5.41994,7.67755 -3.24327,0.81739 -6.21754,0.0272 -7.93611,-2.83597 -1.02722,-1.71135 -1.4565,-4.01406 -1.48038,-6.05883 -0.21306,-18.23974 -0.24486,-36.48149 -0.39821,-54.722064 -0.0604,-7.183873 -4.78024,-12.067138 -11.32846,-11.936981 -6.39838,0.127176 -10.60065,4.866235 -10.59532,12.093426 0.008,10.064139 0.0926,20.128219 0.14306,30.192329 0.0171,3.39631 0.18599,6.80105 0.004,10.18675 -0.21537,3.9965 -3.22678,6.88683 -6.99678,7.08503 -3.9739,0.20892 -7.01797,-2.17835 -7.66528,-6.16457 -0.24004,-1.47827 -0.22552,-3.00649 -0.23398,-4.51245 -0.11157,-19.87656 -0.23204,-39.753144 -0.28538,-59.629896 -0.0115,-4.290909 -1.19053,-7.978742 -4.86981,-10.44172 -3.63269,-2.431785 -7.61872,-2.80903 -11.44179,-0.669839 -3.91483,2.190538 -5.72077,5.723602 -5.68266,10.331295 0.16855,20.379248 0.25545,40.75935 0.2892,61.13927 0.003,1.9603 -0.17451,4.09563 -0.95374,5.84422 -1.39806,3.13724 -4.97563,4.49791 -8.28033,3.66776 -3.35598,-0.84304 -5.57706,-3.85016 -5.60998,-7.97218 -0.12882,-16.10218 -0.16312,-32.205118 -0.28606,-48.307362 -0.0776,-10.172677 -8.19164,-15.110942 -17.78699,-10.198992 z"
   id="path2"
   style="stroke-width:0.755" />
<path
   fill="#F91228"
   opacity="1"
   stroke="none"
   d="m 103.40153,69.520088 c 9.35645,-4.713005 17.47043,0.22526 17.54808,10.397937 0.12294,16.102244 0.15724,32.205175 0.28585,48.307365 0.0329,4.12202 2.254,7.12914 5.60997,7.97218 3.30471,0.83015 6.88228,-0.53053 8.28035,-3.66776 0.77922,-1.74859 0.95698,-3.88393 0.95373,-5.84422 -0.0337,-20.37993 -0.12065,-40.760025 -0.28921,-61.139273 -0.0381,-4.607693 1.76784,-8.140757 5.68267,-10.331295 3.82307,-2.139191 7.80909,-1.761946 11.44179,0.669839 3.67927,2.462978 4.8583,6.150811 4.86981,10.441719 0.0533,19.876753 0.1738,39.75334 0.28538,59.6299 0.008,1.50596 -0.006,3.03418 0.23398,4.51245 0.64731,3.98622 3.69137,6.37349 7.66528,6.16457 3.77,-0.1982 6.78141,-3.08853 6.99677,-7.08503 0.18244,-3.3857 0.0135,-6.79045 -0.004,-10.18675 -0.0504,-10.06412 -0.13565,-20.128193 -0.14307,-30.192332 -0.005,-7.227191 4.19694,-11.96625 10.59533,-12.093426 6.54822,-0.130157 11.26807,4.753107 11.32847,11.936981 0.15334,18.240577 0.18513,36.482327 0.3982,54.722067 0.0239,2.04477 0.45316,4.34748 1.48038,6.05883 1.71856,2.86315 4.69284,3.65336 7.93612,2.83597 3.39427,-0.85544 5.41286,-3.59559 5.41993,-7.67755 0.0177,-10.18953 -0.0998,-20.37926 -0.15665,-30.56895 -0.0154,-2.76714 -0.14931,-5.54293 0.0172,-8.29989 0.37432,-6.197148 4.79262,-10.421856 10.71391,-10.430933 5.9373,-0.0091 10.80117,4.526463 11.12219,10.587203 0.19943,3.7652 0.12396,7.54574 0.14439,11.31954 0.14304,26.41823 0.31303,52.83638 0.40785,79.25479 0.10303,28.70434 -20.1536,49.0751 -48.78766,49.02579 -22.1412,-0.0381 -44.28747,-0.55599 -66.42171,-0.21868 -22.297664,0.33982 -38.082999,-12.63432 -43.763671,-33.23031 -5.441896,-19.73031 -9.847473,-39.74824 -14.607757,-59.66383 -2.029812,-8.49207 0.748807,-15.4574 7.675035,-20.56825 5.626789,-4.152 11.548217,-7.90471 17.957396,-12.25417 0.03096,5.93619 0.05271,11.28918 0.08881,16.64208 0.02713,4.02548 0.01736,8.05229 0.123873,12.07588 0.135051,5.10134 2.950647,8.22956 7.332939,8.29439 4.426682,0.0655 7.54813,-3.3296 7.529097,-8.49458 -0.08432,-22.89586 -0.204796,-45.79172 -0.388408,-68.686963 -0.0322,-4.014131 0.979707,-7.438811 4.436896,-10.215289 z"
   id="path3"
   style="fill:#12f924;fill-opacity:1;stroke-width:0.755" />
</svg>
