<svg version="1.1" id="Layer_1" xmlns="http://www.w3.org/2000/svg" xmlns:xlink="http://www.w3.org/1999/xlink" x="0px" y="0px"
	 width="100%" viewBox="0 0 306 305" enable-background="new 0 0 306 305" xml:space="preserve">
<path fill="#F6F6F6" opacity="1.000000" stroke="none" 
	d="
M168.000000,306.000000 
	C112.000023,306.000000 56.500053,306.000000 1.000060,306.000000 
	C1.000040,204.333405 1.000040,102.666817 1.000020,1.000169 
	C102.999878,1.000112 204.999756,1.000112 306.999725,1.000056 
	C306.999817,102.666496 306.999817,204.332993 306.999908,305.999756 
	C260.833344,306.000000 214.666672,306.000000 168.000000,306.000000 
M80.670349,292.863037 
	C91.446449,299.384735 103.119545,302.924835 115.725227,302.967102 
	C141.383041,303.053101 167.043121,303.183685 192.698990,302.944336 
	C228.992065,302.605713 259.746063,273.431946 260.702881,237.080093 
	C261.627533,201.949783 261.121124,166.775421 260.855682,131.623337 
	C260.750275,117.665306 250.607498,105.823509 236.756271,103.822540 
	C230.296494,102.889351 223.470642,104.490143 215.750443,105.014366 
	C208.027191,94.734955 196.526413,90.703972 182.083679,94.355812 
	C182.083679,92.377502 182.085022,90.732254 182.083450,89.087006 
	C182.065125,69.926994 182.317261,50.761707 181.943954,31.608610 
	C181.632538,15.630593 168.261108,3.033092 152.429840,3.013812 
	C136.743362,2.994709 123.679306,15.312197 122.856804,31.016977 
	C122.639191,35.172016 122.732704,39.344700 122.728691,43.509327 
	C122.715721,56.973923 122.723846,70.438538 122.723846,84.084724 
	C121.669090,84.031395 120.990822,84.120819 120.387207,83.948586 
	C102.989670,78.984467 82.580772,92.239006 83.114052,115.017097 
	C83.406448,127.506058 83.174530,140.007553 83.146744,152.503342 
	C83.144073,153.705597 82.912041,154.907333 82.751404,156.445068 
	C80.202293,153.935791 78.094322,151.821854 75.944458,149.751404 
	C67.733330,141.843674 59.125004,134.532669 47.694675,131.670807 
	C35.997849,128.742218 25.781843,131.294510 17.955748,140.686249 
	C10.327639,149.840378 9.009233,160.071533 14.132961,170.991302 
	C16.039139,175.053772 17.906458,179.136230 19.700926,183.249084 
	C30.066652,207.007050 40.954060,230.557816 50.557823,254.620560 
	C56.834808,270.347900 65.782867,283.308289 80.670349,292.863037 
z"/>
<path fill="#030202" opacity="1.000000" stroke="none" 
	d="
M80.370209,292.658569 
	C65.782867,283.308289 56.834808,270.347900 50.557823,254.620560 
	C40.954060,230.557816 30.066652,207.007050 19.700926,183.249084 
	C17.906458,179.136230 16.039139,175.053772 14.132961,170.991302 
	C9.009233,160.071533 10.327639,149.840378 17.955748,140.686249 
	C25.781843,131.294510 35.997849,128.742218 47.694675,131.670807 
	C59.125004,134.532669 67.733330,141.843674 75.944458,149.751404 
	C78.094322,151.821854 80.202293,153.935791 82.751404,156.445068 
	C82.912041,154.907333 83.144073,153.705597 83.146744,152.503342 
	C83.174530,140.007553 83.406448,127.506058 83.114052,115.017097 
	C82.580772,92.239006 102.989670,78.984467 120.387207,83.948586 
	C120.990822,84.120819 121.669090,84.031395 122.723846,84.084724 
	C122.723846,70.438538 122.715721,56.973923 122.728691,43.509327 
	C122.732704,39.344700 122.639191,35.172016 122.856804,31.016977 
	C123.679306,15.312197 136.743362,2.994709 152.429840,3.013812 
	C168.261108,3.033092 181.632538,15.630593 181.943954,31.608610 
	C182.317261,50.761707 182.065125,69.926994 182.083450,89.087006 
	C182.085022,90.732254 182.083679,92.377502 182.083679,94.355812 
	C196.526413,90.703972 208.027191,94.734955 215.750443,105.014366 
	C223.470642,104.490143 230.296494,102.889351 236.756271,103.822540 
	C250.607498,105.823509 260.750275,117.665306 260.855682,131.623337 
	C261.121124,166.775421 261.627533,201.949783 260.702881,237.080093 
	C259.746063,273.431946 228.992065,302.605713 192.698990,302.944336 
	C167.043121,303.183685 141.383041,303.053101 115.725227,302.967102 
	C103.119545,302.924835 91.446449,299.384735 80.370209,292.658569 
M161.842102,30.314245 
	C159.198456,24.487062 155.332840,22.074499 150.307266,23.115252 
	C145.672714,24.075029 142.792221,28.108408 142.580170,33.970791 
	C142.538040,35.135456 142.572388,36.302898 142.572266,37.469063 
	C142.568008,76.118950 142.566437,114.768845 142.551712,153.418732 
	C142.551010,155.248001 142.574173,157.095108 142.344162,158.903122 
	C141.655197,164.318802 137.195892,168.224640 132.190277,167.931839 
	C127.048195,167.631058 123.022041,163.446701 122.925262,157.999756 
	C122.806900,151.338013 122.895264,144.672592 122.893341,138.008774 
	C122.890999,129.845596 123.018951,121.679565 122.842003,113.520164 
	C122.708229,107.351852 118.550461,103.081665 113.087173,103.008942 
	C107.301048,102.931923 103.275887,107.199120 103.027306,113.704384 
	C102.976448,115.035309 103.011757,116.369637 103.011688,117.702393 
	C103.010704,138.693436 102.940613,159.684891 103.060181,180.675247 
	C103.089256,185.779343 101.902260,189.937454 96.864410,192.072937 
	C91.703392,194.260605 87.860344,191.869583 84.492012,188.208466 
	C77.951073,181.098953 71.814682,173.562759 64.794907,166.964890 
	C58.800556,161.330795 52.061180,156.366287 45.146545,151.884415 
	C41.482189,149.509293 36.784218,149.427994 33.190212,153.163193 
	C29.771545,156.716156 31.196548,160.332260 32.884254,164.203186 
	C45.711037,193.622833 58.477432,223.069199 71.135361,252.561874 
	C79.172195,271.287506 96.633018,282.994263 116.983704,282.994812 
	C142.306229,282.995483 167.628830,283.028656 192.951279,282.986267 
	C218.462265,282.943573 240.887970,260.639008 240.969589,235.049469 
	C241.076904,201.397507 241.003342,167.744934 240.983414,134.092621 
	C240.979446,127.391891 237.266754,123.124023 231.478592,123.006790 
	C225.657043,122.888885 221.698654,127.035484 221.625534,133.720612 
	C221.508911,144.381470 221.620651,155.044632 221.570084,165.706512 
	C221.544846,171.030273 221.715820,176.388351 221.175369,181.667160 
	C220.606171,187.226578 216.035278,190.689514 210.811005,190.287186 
	C205.784698,189.900101 202.091522,186.011780 201.767807,180.695419 
	C201.676819,179.201309 201.740051,177.697571 201.739868,176.198242 
	C201.737823,158.705704 201.801346,141.212799 201.702667,123.720818 
	C201.666260,117.266495 197.422974,112.931206 191.683823,113.008919 
	C186.088654,113.084686 182.235321,117.255432 182.006439,123.521400 
	C181.951736,125.018883 181.989243,126.519829 181.988846,128.019180 
	C181.985123,142.013199 182.102722,156.008698 181.932602,170.000687 
	C181.836090,177.939056 174.186829,183.011505 167.861023,179.083435 
	C165.226547,177.447540 163.870743,173.752380 162.096695,170.068481 
	C162.108093,124.871956 162.121811,79.675423 162.117752,34.478897 
	C162.117661,33.327068 161.922363,32.175255 161.842102,30.314245 
z"/>
<path fill="#F81228" opacity="1.000000" stroke="none" 
	d="
M161.933533,170.993607 
	C163.870743,173.752380 165.226547,177.447540 167.861023,179.083435 
	C174.186829,183.011505 181.836090,177.939056 181.932602,170.000687 
	C182.102722,156.008698 181.985123,142.013199 181.988846,128.019180 
	C181.989243,126.519829 181.951736,125.018883 182.006439,123.521400 
	C182.235321,117.255432 186.088654,113.084686 191.683823,113.008919 
	C197.422974,112.931206 201.666260,117.266495 201.702667,123.720818 
	C201.801346,141.212799 201.737823,158.705704 201.739868,176.198242 
	C201.740051,177.697571 201.676819,179.201309 201.767807,180.695419 
	C202.091522,186.011780 205.784698,189.900101 210.811005,190.287186 
	C216.035278,190.689514 220.606171,187.226578 221.175369,181.667160 
	C221.715820,176.388351 221.544846,171.030273 221.570084,165.706512 
	C221.620651,155.044632 221.508911,144.381470 221.625534,133.720612 
	C221.698654,127.035484 225.657043,122.888885 231.478592,123.006790 
	C237.266754,123.124023 240.979446,127.391891 240.983414,134.092621 
	C241.003342,167.744934 241.076904,201.397507 240.969589,235.049469 
	C240.887970,260.639008 218.462265,282.943573 192.951279,282.986267 
	C167.628830,283.028656 142.306229,282.995483 116.983704,282.994812 
	C96.633018,282.994263 79.172195,271.287506 71.135361,252.561874 
	C58.477432,223.069199 45.711037,193.622833 32.884254,164.203186 
	C31.196548,160.332260 29.771545,156.716156 33.190212,153.163193 
	C36.784218,149.427994 41.482189,149.509293 45.146545,151.884415 
	C52.061180,156.366287 58.800556,161.330795 64.794907,166.964890 
	C71.814682,173.562759 77.951073,181.098953 84.492012,188.208466 
	C87.860344,191.869583 91.703392,194.260605 96.864410,192.072937 
	C101.902260,189.937454 103.089256,185.779343 103.060181,180.675247 
	C102.940613,159.684891 103.010704,138.693436 103.011688,117.702393 
	C103.011757,116.369637 102.976448,115.035309 103.027306,113.704384 
	C103.275887,107.199120 107.301048,102.931923 113.087173,103.008942 
	C118.550461,103.081665 122.708229,107.351852 122.842003,113.520164 
	C123.018951,121.679565 122.890999,129.845596 122.893341,138.008774 
	C122.895264,144.672592 122.806900,151.338013 122.925262,157.999756 
	C123.022041,163.446701 127.048195,167.631058 132.190277,167.931839 
	C137.195892,168.224640 141.655197,164.318802 142.344162,158.903122 
	C142.574173,157.095108 142.551010,155.248001 142.551712,153.418732 
	C142.566437,114.768845 142.568008,76.118950 142.572266,37.469063 
	C142.572388,36.302898 142.538040,35.135456 142.580170,33.970791 
	C142.792221,28.108408 145.672714,24.075029 150.307266,23.115252 
	C155.332840,22.074499 159.198456,24.487062 161.578217,30.994431 
	C161.209686,32.491913 161.013748,33.309181 161.013474,34.126511 
	C160.998611,78.342407 160.991608,122.558319 161.039337,166.774170 
	C161.040863,168.180969 161.622391,169.587143 161.933533,170.993607 
z"/>
<path fill="#FF2036" opacity="1.000000" stroke="none" 
	d="
M162.015106,170.531036 
	C161.622391,169.587143 161.040863,168.180969 161.039337,166.774170 
	C160.991608,122.558319 160.998611,78.342407 161.013474,34.126511 
	C161.013748,33.309181 161.209686,32.491913 161.566223,31.349024 
	C161.922363,32.175255 162.117661,33.327068 162.117752,34.478897 
	C162.121811,79.675423 162.108093,124.871956 162.015106,170.531036 
z"/>
</svg>