<?xml version="1.0" encoding="UTF-8" standalone="no"?>
<svg
   version="1.1"
   id="Layer_1"
   x="0px"
   y="0px"
   width="100%"
   viewBox="0 0 306 305"
   enable-background="new 0 0 306 305"
   xml:space="preserve"
   sodipodi:docname="icon-on.svg"
   inkscape:version="1.4.2 (f4327f4, 2025-05-13)"
   xmlns:inkscape="http://www.inkscape.org/namespaces/inkscape"
   xmlns:sodipodi="http://sodipodi.sourceforge.net/DTD/sodipodi-0.dtd"
   xmlns="http://www.w3.org/2000/svg"
   xmlns:svg="http://www.w3.org/2000/svg"><defs
   id="defs4" /><sodipodi:namedview
   id="namedview4"
   pagecolor="#ffffff"
   bordercolor="#000000"
   borderopacity="0.25"
   inkscape:showpageshadow="2"
   inkscape:pageopacity="0.0"
   inkscape:pagecheckerboard="0"
   inkscape:deskcolor="#d1d1d1"
   inkscape:zoom="3.1360656"
   inkscape:cx="-84.341349"
   inkscape:cy="219.22373"
   inkscape:window-width="3840"
   inkscape:window-height="2131"
   inkscape:window-x="1911"
   inkscape:window-y="-9"
   inkscape:window-maximized="1"
   inkscape:current-layer="Layer_1" />

<path
   fill="#030202"
   opacity="1.000000"
   stroke="none"
   d=" M80.370209,292.658569   C65.782867,283.308289 56.834808,270.347900 50.557823,254.620560   C40.954060,230.557816 30.066652,207.007050 19.700926,183.249084   C17.906458,179.136230 16.039139,175.053772 14.132961,170.991302   C9.009233,160.071533 10.327639,149.840378 17.955748,140.686249   C25.781843,131.294510 35.997849,128.742218 47.694675,131.670807   C59.125004,134.532669 67.733330,141.843674 75.944458,149.751404   C78.094322,151.821854 80.202293,153.935791 82.751404,156.445068   C82.912041,154.907333 83.144073,153.705597 83.146744,152.503342   C83.174530,140.007553 83.406448,127.506058 83.114052,115.017097   C82.580772,92.239006 102.989670,78.984467 120.387207,83.948586   C120.990822,84.120819 121.669090,84.031395 122.723846,84.084724   C122.723846,70.438538 122.715721,56.973923 122.728691,43.509327   C122.732704,39.344700 122.639191,35.172016 122.856804,31.016977   C123.679306,15.312197 136.743362,2.994709 152.429840,3.013812   C168.261108,3.033092 181.632538,15.630593 181.943954,31.608610   C182.317261,50.761707 182.065125,69.926994 182.083450,89.087006   C182.085022,90.732254 182.083679,92.377502 182.083679,94.355812   C196.526413,90.703972 208.027191,94.734955 215.750443,105.014366   C223.470642,104.490143 230.296494,102.889351 236.756271,103.822540   C250.607498,105.823509 260.750275,117.665306 260.855682,131.623337   C261.121124,166.775421 261.627533,201.949783 260.702881,237.080093   C259.746063,273.431946 228.992065,302.605713 192.698990,302.944336   C167.043121,303.183685 141.383041,303.053101 115.725227,302.967102   C103.119545,302.924835 91.446449,299.384735 80.370209,292.658569  M161.842102,30.314245   C159.198456,24.487062 155.332840,22.074499 150.307266,23.115252   C145.672714,24.075029 142.792221,28.108408 142.580170,33.970791   C142.538040,35.135456 142.572388,36.302898 142.572266,37.469063   C142.568008,76.118950 142.566437,114.768845 142.551712,153.418732   C142.551010,155.248001 142.574173,157.095108 142.344162,158.903122   C141.655197,164.318802 137.195892,168.224640 132.190277,167.931839   C127.048195,167.631058 123.022041,163.446701 122.925262,157.999756   C122.806900,151.338013 122.895264,144.672592 122.893341,138.008774   C122.890999,129.845596 123.018951,121.679565 122.842003,113.520164   C122.708229,107.351852 118.550461,103.081665 113.087173,103.008942   C107.301048,102.931923 103.275887,107.199120 103.027306,113.704384   C102.976448,115.035309 103.011757,116.369637 103.011688,117.702393   C103.010704,138.693436 102.940613,159.684891 103.060181,180.675247   C103.089256,185.779343 101.902260,189.937454 96.864410,192.072937   C91.703392,194.260605 87.860344,191.869583 84.492012,188.208466   C77.951073,181.098953 71.814682,173.562759 64.794907,166.964890   C58.800556,161.330795 52.061180,156.366287 45.146545,151.884415   C41.482189,149.509293 36.784218,149.427994 33.190212,153.163193   C29.771545,156.716156 31.196548,160.332260 32.884254,164.203186   C45.711037,193.622833 58.477432,223.069199 71.135361,252.561874   C79.172195,271.287506 96.633018,282.994263 116.983704,282.994812   C142.306229,282.995483 167.628830,283.028656 192.951279,282.986267   C218.462265,282.943573 240.887970,260.639008 240.969589,235.049469   C241.076904,201.397507 241.003342,167.744934 240.983414,134.092621   C240.979446,127.391891 237.266754,123.124023 231.478592,123.006790   C225.657043,122.888885 221.698654,127.035484 221.625534,133.720612   C221.508911,144.381470 221.620651,155.044632 221.570084,165.706512   C221.544846,171.030273 221.715820,176.388351 221.175369,181.667160   C220.606171,187.226578 216.035278,190.689514 210.811005,190.287186   C205.784698,189.900101 202.091522,186.011780 201.767807,180.695419   C201.676819,179.201309 201.740051,177.697571 201.739868,176.198242   C201.737823,158.705704 201.801346,141.212799 201.702667,123.720818   C201.666260,117.266495 197.422974,112.931206 191.683823,113.008919   C186.088654,113.084686 182.235321,117.255432 182.006439,123.521400   C181.951736,125.018883 181.989243,126.519829 181.988846,128.019180   C181.985123,142.013199 182.102722,156.008698 181.932602,170.000687   C181.836090,177.939056 174.186829,183.011505 167.861023,179.083435   C165.226547,177.447540 163.870743,173.752380 162.096695,170.068481   C162.108093,124.871956 162.121811,79.675423 162.117752,34.478897   C162.117661,33.327068 161.922363,32.175255 161.842102,30.314245  z"
   id="path2" />
<path
   fill="#f81228"
   opacity="1"
   stroke="none"
   d="m 162.15901,170.99361 c 1.93721,2.75877 3.06754,6.45393 5.70201,8.08982 6.32581,3.92807 13.97507,-1.14437 14.07158,-9.08274 0.17012,-13.99199 0.0525,-27.98749 0.0563,-41.98151 3.9e-4,-1.49935 -0.0371,-3.0003 0.0176,-4.49778 0.22888,-6.26597 4.08221,-10.43671 9.67738,-10.51248 5.73915,-0.0777 9.98244,4.25758 10.01885,10.7119 0.0987,17.49198 0.0351,34.98488 0.0372,52.47742 1.8e-4,1.49933 -0.0631,3.00307 0.0279,4.49718 0.32371,5.31636 4.01689,9.20468 9.04319,9.59177 5.22428,0.40232 9.79517,-3.06061 10.36437,-8.62003 0.54045,-5.27881 0.36948,-10.63689 0.39471,-15.96065 0.0506,-10.66188 -0.0612,-21.32504 0.0555,-31.9859 0.0731,-6.68513 4.03151,-10.83172 9.85306,-10.71382 5.78816,0.11723 9.50086,4.3851 9.50482,11.08583 0.0199,33.65231 0.0935,67.30489 -0.0138,100.95685 -0.0816,25.58954 -22.50733,47.8941 -48.01831,47.9368 -25.32245,0.0424 -50.64505,0.009 -75.96758,0.009 -20.350682,-5.5e-4 -37.811505,-11.7073 -45.848339,-30.43294 -12.657929,-29.49267 -25.424324,-58.93904 -38.251107,-88.35868 -1.687706,-3.87093 -3.112709,-7.48703 0.305958,-11.04 3.594006,-3.7352 8.291977,-3.6539 11.956333,-1.27878 6.914635,4.48188 13.654011,9.44638 19.648362,15.08048 7.019775,6.59787 13.156166,14.13406 19.697105,21.24358 3.368332,3.66111 7.21138,6.05213 12.372398,3.86447 5.03785,-2.13549 6.22485,-6.2936 6.19577,-11.39769 -0.11957,-20.99036 -0.0495,-41.98181 -0.0485,-62.97286 7e-5,-1.33275 -0.0352,-2.66708 0.0156,-3.99801 0.24858,-6.50526 4.27374,-10.77246 10.05986,-10.69544 5.46329,0.0727 9.62106,4.34291 9.75483,10.51122 0.17695,8.1594 0.049,16.32544 0.0513,24.48861 0.002,6.66382 -0.0864,13.32924 0.0319,19.99099 0.0968,5.44694 4.12294,9.6313 9.26502,9.93208 5.00561,0.2928 9.46492,-3.61304 10.15388,-9.02872 0.23001,-1.80801 0.20685,-3.65512 0.20755,-5.48439 0.0147,-38.64988 0.0163,-77.29978 0.0206,-115.949667 1.2e-4,-1.166165 -0.0342,-2.333607 0.008,-3.498272 0.21205,-5.862383 3.09254,-9.895762 7.7271,-10.855539 5.02557,-1.040753 9.08239,0.665403 11.46215,7.172772 -0.36853,1.497482 -0.75567,3.021157 -0.75595,3.838487 -0.0149,44.215896 -0.0219,88.431809 0.0259,132.647659 0.002,1.4068 2.18956,5.09591 2.5007,6.50238 z"
   id="path3"
   sodipodi:nodetypes="cssssssssssssssssssssssssssssssssscsssccscc" />
<path
   fill="#ff2036"
   opacity="1"
   stroke="none"
   d="m 162.01511,170.53104 c -0.39272,-0.9439 -0.97425,-2.35007 -0.97577,-3.75687 -0.0477,-44.21585 -0.0407,-88.431763 -0.0259,-132.647659 2.8e-4,-0.81733 0.19621,-3.547824 0.55275,-4.690713 0.35614,0.826231 0.55144,3.89127 0.55153,5.043099 0.004,45.196526 -0.01,90.393063 -0.10264,136.052143 z"
   id="path4"
   sodipodi:nodetypes="ccscccc"
   style="fill:#f81228;fill-opacity:1" />
</svg>
